<svg xmlns="http://www.w3.org/2000/svg" viewBox="0 0 64 64" role="img" aria-label="Bullfrog Wine and Spirits favicon">
  <defs>
    <linearGradient id="bg" x1="0%" y1="0%" x2="100%" y2="100%">
      <stop offset="0%" stop-color="#2e7d4f" />
      <stop offset="55%" stop-color="#1d5c38" />
      <stop offset="100%" stop-color="#123a24" />
    </linearGradient>
  </defs>
  <circle cx="32" cy="32" r="29" fill="url(#bg)" stroke="#ffffff" stroke-width="4" />
  <path
    d="M20 45V19h12.2c4.9 0 8.1 2.4 8.1 6.4 0 2.7-1.5 4.6-3.8 5.5 3 .8 4.9 3 4.9 6.2 0 4.9-3.6 7.9-9.2 7.9Zm6-15.6h5.4c2 0 3.2-1 3.2-2.7s-1.2-2.7-3.2-2.7H26Zm0 10.6h6.1c2.2 0 3.5-1.1 3.5-3s-1.3-3-3.5-3H26Z"
    fill="#ffffff"
  />
</svg>
